ffmpeg version 4.2.4-1ubuntu0.1 Copyright (c) 2000-2020 the FFmpeg developers
  built with gcc 9 (Ubuntu 9.3.0-10ubuntu2)
  configuration: --prefix=/usr --extra-version=1ubuntu0.1 --toolchain=hardened --libdir=/usr/lib/x86_64-linux-gnu --incdir=/usr/include/x86_64-linux-gnu --arch=amd64 --enable-gpl --disable-stripping --enable-avresample --disable-filter=resample --enable-avisynth --enable-gnutls --enable-ladspa --enable-libaom --enable-libass --enable-libbluray --enable-libbs2b --enable-libcaca --enable-libcdio --enable-libcodec2 --enable-libflite --enable-libfontconfig --enable-libfreetype --enable-libfribidi --enable-libgme --enable-libgsm --enable-libjack --enable-libmp3lame --enable-libmysofa --enable-libopenjpeg --enable-libopenmpt --enable-libopus --enable-libpulse --enable-librsvg --enable-librubberband --enable-libshine --enable-libsnappy --enable-libsoxr --enable-libspeex --enable-libssh --enable-libtheora --enable-libtwolame --enable-libvidstab --enable-libvorbis --enable-libvpx --enable-libwavpack --enable-libwebp --enable-libx265 --enable-libxml2 --enable-libxvid --enable-libzmq --enable-libzvbi --enable-lv2 --enable-omx --enable-openal --enable-opencl --enable-opengl --enable-sdl2 --enable-libdc1394 --enable-libdrm --enable-libiec61883 --enable-nvenc --enable-chromaprint --enable-frei0r --enable-libx264 --enable-shared
  WARNING: library configuration mismatch
  avcodec     configuration: --prefix=/usr --extra-version=1ubuntu0.1 --toolchain=hardened --libdir=/usr/lib/x86_64-linux-gnu --incdir=/usr/include/x86_64-linux-gnu --arch=amd64 --enable-gpl --disable-stripping --enable-avresample --disable-filter=resample --enable-avisynth --enable-gnutls --enable-ladspa --enable-libaom --enable-libass --enable-libbluray --enable-libbs2b --enable-libcaca --enable-libcdio --enable-libcodec2 --enable-libflite --enable-libfontconfig --enable-libfreetype --enable-libfribidi --enable-libgme --enable-libgsm --enable-libjack --enable-libmp3lame --enable-libmysofa --enable-libopenjpeg --enable-libopenmpt --enable-libopus --enable-libpulse --enable-librsvg --enable-librubberband --enable-libshine --enable-libsnappy --enable-libsoxr --enable-libspeex --enable-libssh --enable-libtheora --enable-libtwolame --enable-libvidstab --enable-libvorbis --enable-libvpx --enable-libwavpack --enable-libwebp --enable-libx265 --enable-libxml2 --enable-libxvid --enable-libzmq --enable-libzvbi --enable-lv2 --enable-omx --enable-openal --enable-opencl --enable-opengl --enable-sdl2 --enable-libdc1394 --enable-libdrm --enable-libiec61883 --enable-nvenc --enable-chromaprint --enable-frei0r --enable-libx264 --enable-shared --enable-version3 --disable-doc --disable-programs --enable-libaribb24 --enable-liblensfun --enable-libopencore_amrnb --enable-libopencore_amrwb --enable-libtesseract --enable-libvo_amrwbenc
  libavutil      56. 31.100 / 56. 31.100
  libavcodec     58. 54.100 / 58. 54.100
  libavformat    58. 29.100 / 58. 29.100
  libavdevice    58.  8.100 / 58.  8.100
  libavfilter     7. 57.100 /  7. 57.100
  libavresample   4.  0.  0 /  4.  0.  0
  libswscale      5.  5.100 /  5.  5.100
  libswresample   3.  5.100 /  3.  5.100
  libpostproc    55.  5.100 / 55.  5.100
Input #0, image2pipe, from 'pipe:':
  Duration: N/A, bitrate: N/A
    Stream #0:0: Video: ppm, rgb24, 600x600, 25 fps, 25 tbr, 25 tbn, 25 tbc
Stream mapping:
  Stream #0:0 -> #0:0 (ppm (native) -> h264 (libx264))
[libx264 @ 0x5555555e0800] using cpu capabilities: MMX2 SSE2Fast SSSE3 SSE4.2 AVX FMA3 BMI2 AVX2 AVX512
[libx264 @ 0x5555555e0800] profile High, level 3.0
Output #0, mpegts, to 'amove.mp4':
  Metadata:
    encoder         : Lavf58.29.100
    Stream #0:0: Video: h264 (libx264), yuv420p, 600x600, q=-1--1, 25 fps, 90k tbn, 25 tbc
    Metadata:
      encoder         : Lavc58.54.100 libx264
    Side data:
      cpb: bitrate max/min/avg: 0/0/0 buffer size: 0 vbv_delay: -1
frame=    7 fps=0.3 q=16.0 size=      24kB time=00:00:00.24 bitrate= 833.4kbits/s speed=0.00985x    frame=    8 fps=0.2 q=16.0 size=      30kB time=00:00:00.28 bitrate= 870.1kbits/s speed=0.00533x    frame=    9 fps=0.1 q=16.0 size=      35kB time=00:00:00.32 bitrate= 893.0kbits/s speed=0.00365x    frame=   10 fps=0.1 q=16.0 size=      40kB time=00:00:00.36 bitrate= 910.7kbits/s speed=0.00293x    frame=   11 fps=0.1 q=16.0 size=      46kB time=00:00:00.40 bitrate= 940.0kbits/s speed=0.00263x    frame=   12 fps=0.1 q=16.0 size=      52kB time=00:00:00.44 bitrate= 963.9kbits/s speed=0.0024x    frame=   13 fps=0.1 q=17.0 size=      57kB time=00:00:00.48 bitrate= 980.7kbits/s speed=0.00214x    frame=   14 fps=0.1 q=16.0 size=      63kB time=00:00:00.52 bitrate= 986.3kbits/s speed=0.00191x    frame=   15 fps=0.0 q=16.0 size=      68kB time=00:00:00.56 bitrate= 993.7kbits/s speed=0.00182x    frame=   16 fps=0.0 q=16.0 size=      73kB time=00:00:00.60 bitrate= 992.6kbits/s speed=0.00176x    frame=   17 fps=0.0 q=16.0 size=      77kB time=00:00:00.64 bitrate= 982.3kbits/s speed=0.00166x    frame=   18 fps=0.0 q=16.0 size=      82kB time=00:00:00.68 bitrate= 986.4kbits/s speed=0.00161x    frame=   19 fps=0.0 q=16.0 size=      88kB time=00:00:00.72 bitrate=1006.8kbits/s speed=0.00158x    Error while decoding stream #0:0: Invalid data found when processing input
frame=   19 fps=0.0 q=16.0 size=      88kB time=00:00:00.72 bitrate=1006.8kbits/s speed=0.00146x    frame=   19 fps=0.0 q=16.0 Lsize=      88kB time=00:00:00.72 bitrate=1006.8kbits/s speed=0.0014x    
video:80kB audio:0kB subtitle:0kB other streams:0kB global headers:0kB muxing overhead: 11.066714%
[libx264 @ 0x5555555e0800] frame I:1     Avg QP: 1.34  size:  1375
[libx264 @ 0x5555555e0800] frame P:18    Avg QP: 3.71  size:  4456
[libx264 @ 0x5555555e0800] mb I  I16..4: 99.4%  0.0%  0.6%
[libx264 @ 0x5555555e0800] mb P  I16..4:  3.2%  0.2%  3.6%  P16..4:  1.2%  0.6%  0.3%  0.0%  0.0%    skip:90.9%
[libx264 @ 0x5555555e0800] 8x8 transform intra:1.8% inter:17.2%
[libx264 @ 0x5555555e0800] coded y,uvDC,uvAC intra: 23.1% 31.1% 28.8% inter: 1.0% 1.5% 1.2%
[libx264 @ 0x5555555e0800] i16 v,h,dc,p: 48% 29% 23%  0%
[libx264 @ 0x5555555e0800] i8 v,h,dc,ddl,ddr,vr,hd,vl,hu:  4% 32% 51%  0%  2%  0%  3%  2%  7%
[libx264 @ 0x5555555e0800] i4 v,h,dc,ddl,ddr,vr,hd,vl,hu:  9% 36% 20%  3%  7%  2%  9%  3% 10%
[libx264 @ 0x5555555e0800] i8c dc,h,v,p: 64% 28%  5%  3%
[libx264 @ 0x5555555e0800] Weighted P-Frames: Y:72.2% UV:72.2%
[libx264 @ 0x5555555e0800] ref P L0: 72.1%  0.5%  7.2%  2.4% 12.1%  4.3%  1.2%
[libx264 @ 0x5555555e0800] kb/s:858.81
Exiting normally, received signal 2.
ffmpeg version 4.2.4-1ubuntu0.1 Copyright (c) 2000-2020 the FFmpeg developers
  built with gcc 9 (Ubuntu 9.3.0-10ubuntu2)
  configuration: --prefix=/usr --extra-version=1ubuntu0.1 --toolchain=hardened --libdir=/usr/lib/x86_64-linux-gnu --incdir=/usr/include/x86_64-linux-gnu --arch=amd64 --enable-gpl --disable-stripping --enable-avresample --disable-filter=resample --enable-avisynth --enable-gnutls --enable-ladspa --enable-libaom --enable-libass --enable-libbluray --enable-libbs2b --enable-libcaca --enable-libcdio --enable-libcodec2 --enable-libflite --enable-libfontconfig --enable-libfreetype --enable-libfribidi --enable-libgme --enable-libgsm --enable-libjack --enable-libmp3lame --enable-libmysofa --enable-libopenjpeg --enable-libopenmpt --enable-libopus --enable-libpulse --enable-librsvg --enable-librubberband --enable-libshine --enable-libsnappy --enable-libsoxr --enable-libspeex --enable-libssh --enable-libtheora --enable-libtwolame --enable-libvidstab --enable-libvorbis --enable-libvpx --enable-libwavpack --enable-libwebp --enable-libx265 --enable-libxml2 --enable-libxvid --enable-libzmq --enable-libzvbi --enable-lv2 --enable-omx --enable-openal --enable-opencl --enable-opengl --enable-sdl2 --enable-libdc1394 --enable-libdrm --enable-libiec61883 --enable-nvenc --enable-chromaprint --enable-frei0r --enable-libx264 --enable-shared
  WARNING: library configuration mismatch
  avcodec     configuration: --prefix=/usr --extra-version=1ubuntu0.1 --toolchain=hardened --libdir=/usr/lib/x86_64-linux-gnu --incdir=/usr/include/x86_64-linux-gnu --arch=amd64 --enable-gpl --disable-stripping --enable-avresample --disable-filter=resample --enable-avisynth --enable-gnutls --enable-ladspa --enable-libaom --enable-libass --enable-libbluray --enable-libbs2b --enable-libcaca --enable-libcdio --enable-libcodec2 --enable-libflite --enable-libfontconfig --enable-libfreetype --enable-libfribidi --enable-libgme --enable-libgsm --enable-libjack --enable-libmp3lame --enable-libmysofa --enable-libopenjpeg --enable-libopenmpt --enable-libopus --enable-libpulse --enable-librsvg --enable-librubberband --enable-libshine --enable-libsnappy --enable-libsoxr --enable-libspeex --enable-libssh --enable-libtheora --enable-libtwolame --enable-libvidstab --enable-libvorbis --enable-libvpx --enable-libwavpack --enable-libwebp --enable-libx265 --enable-libxml2 --enable-libxvid --enable-libzmq --enable-libzvbi --enable-lv2 --enable-omx --enable-openal --enable-opencl --enable-opengl --enable-sdl2 --enable-libdc1394 --enable-libdrm --enable-libiec61883 --enable-nvenc --enable-chromaprint --enable-frei0r --enable-libx264 --enable-shared --enable-version3 --disable-doc --disable-programs --enable-libaribb24 --enable-liblensfun --enable-libopencore_amrnb --enable-libopencore_amrwb --enable-libtesseract --enable-libvo_amrwbenc
  libavutil      56. 31.100 / 56. 31.100
  libavcodec     58. 54.100 / 58. 54.100
  libavformat    58. 29.100 / 58. 29.100
  libavdevice    58.  8.100 / 58.  8.100
  libavfilter     7. 57.100 /  7. 57.100
  libavresample   4.  0.  0 /  4.  0.  0
  libswscale      5.  5.100 /  5.  5.100
  libswresample   3.  5.100 /  3.  5.100
  libpostproc    55.  5.100 / 55.  5.100
Input #0, image2pipe, from 'pipe:':
  Duration: N/A, bitrate: N/A
    Stream #0:0: Video: ppm, rgb24, 600x600, 25 fps, 25 tbr, 25 tbn, 25 tbc
Stream mapping:
  Stream #0:0 -> #0:0 (ppm (native) -> h264 (libx264))
[libx264 @ 0x5555555e0800] using cpu capabilities: MMX2 SSE2Fast SSSE3 SSE4.2 AVX FMA3 BMI2 AVX2 AVX512
[libx264 @ 0x5555555e0800] profile High, level 3.0
Output #0, mpegts, to 'xmovie.mp4':
  Metadata:
    encoder         : Lavf58.29.100
    Stream #0:0: Video: h264 (libx264), yuv420p, 600x600, q=-1--1, 25 fps, 90k tbn, 25 tbc
    Metadata:
      encoder         : Lavc58.54.100 libx264
    Side data:
      cpb: bitrate max/min/avg: 0/0/0 buffer size: 0 vbv_delay: -1
frame=    7 fps=0.3 q=19.0 size=      30kB time=00:00:00.24 bitrate=1034.0kbits/s speed=0.00984x    frame=    8 fps=0.2 q=19.0 size=      38kB time=00:00:00.28 bitrate=1106.5kbits/s speed=0.00533x    frame=    9 fps=0.1 q=19.0 size=      46kB time=00:00:00.32 bitrate=1170.3kbits/s speed=0.00365x    frame=   10 fps=0.1 q=19.0 size=      53kB time=00:00:00.36 bitrate=1207.3kbits/s speed=0.00293x    frame=   11 fps=0.1 q=19.0 size=      60kB time=00:00:00.40 bitrate=1229.5kbits/s speed=0.00262x    frame=   12 fps=0.1 q=19.0 size=      67kB time=00:00:00.44 bitrate=1254.4kbits/s speed=0.0024x    frame=   13 fps=0.1 q=19.0 size=      75kB time=00:00:00.48 bitrate=1278.4kbits/s speed=0.00214x    frame=   14 fps=0.1 q=19.0 size=      82kB time=00:00:00.52 bitrate=1292.8kbits/s speed=0.00191x    frame=   15 fps=0.0 q=19.0 size=      88kB time=00:00:00.56 bitrate=1294.5kbits/s speed=0.00182x    frame=   16 fps=0.0 q=19.0 size=      95kB time=00:00:00.60 bitrate=1293.4kbits/s speed=0.00176x    frame=   17 fps=0.0 q=19.0 size=     101kB time=00:00:00.64 bitrate=1297.2kbits/s speed=0.00166x    frame=   18 fps=0.0 q=19.0 size=     107kB time=00:00:00.68 bitrate=1289.4kbits/s speed=0.00161x    frame=   19 fps=0.0 q=19.0 size=     114kB time=00:00:00.72 bitrate=1293.0kbits/s speed=0.00158x    Error while decoding stream #0:0: Invalid data found when processing input
frame=   19 fps=0.0 q=19.0 size=     114kB time=00:00:00.72 bitrate=1293.0kbits/s speed=0.00146x    frame=   19 fps=0.0 q=19.0 Lsize=     114kB time=00:00:00.72 bitrate=1293.0kbits/s speed=0.0014x    
video:103kB audio:0kB subtitle:0kB other streams:0kB global headers:0kB muxing overhead: 10.236250%
[libx264 @ 0x5555555e0800] frame I:1     Avg QP: 1.30  size:  1557
[libx264 @ 0x5555555e0800] frame P:18    Avg QP: 6.97  size:  5778
[libx264 @ 0x5555555e0800] mb I  I16..4: 99.4%  0.0%  0.6%
[libx264 @ 0x5555555e0800] mb P  I16..4:  1.0%  0.3%  1.7%  P16..4:  2.9%  1.9%  1.7%  0.0%  0.0%    skip:90.4%
[libx264 @ 0x5555555e0800] 8x8 transform intra:3.7% inter:4.0%
[libx264 @ 0x5555555e0800] coded y,uvDC,uvAC intra: 17.6% 22.8% 21.0% inter: 2.6% 3.6% 3.4%
[libx264 @ 0x5555555e0800] i16 v,h,dc,p: 62% 17% 21%  0%
[libx264 @ 0x5555555e0800] i8 v,h,dc,ddl,ddr,vr,hd,vl,hu:  0% 11% 87%  0%  0%  0%  0%  0%  1%
[libx264 @ 0x5555555e0800] i4 v,h,dc,ddl,ddr,vr,hd,vl,hu:  6% 39% 27%  2%  5%  2%  9%  2%  8%
[libx264 @ 0x5555555e0800] i8c dc,h,v,p: 73% 25%  1%  1%
[libx264 @ 0x5555555e0800] Weighted P-Frames: Y:0.0% UV:0.0%
[libx264 @ 0x5555555e0800] ref P L0: 35.7%  1.7% 24.7% 18.2% 10.3%  9.3%
[libx264 @ 0x5555555e0800] kb/s:1111.22
Exiting normally, received signal 2.
ffmpeg version 4.2.4-1ubuntu0.1 Copyright (c) 2000-2020 the FFmpeg developers
  built with gcc 9 (Ubuntu 9.3.0-10ubuntu2)
  configuration: --prefix=/usr --extra-version=1ubuntu0.1 --toolchain=hardened --libdir=/usr/lib/x86_64-linux-gnu --incdir=/usr/include/x86_64-linux-gnu --arch=amd64 --enable-gpl --disable-stripping --enable-avresample --disable-filter=resample --enable-avisynth --enable-gnutls --enable-ladspa --enable-libaom --enable-libass --enable-libbluray --enable-libbs2b --enable-libcaca --enable-libcdio --enable-libcodec2 --enable-libflite --enable-libfontconfig --enable-libfreetype --enable-libfribidi --enable-libgme --enable-libgsm --enable-libjack --enable-libmp3lame --enable-libmysofa --enable-libopenjpeg --enable-libopenmpt --enable-libopus --enable-libpulse --enable-librsvg --enable-librubberband --enable-libshine --enable-libsnappy --enable-libsoxr --enable-libspeex --enable-libssh --enable-libtheora --enable-libtwolame --enable-libvidstab --enable-libvorbis --enable-libvpx --enable-libwavpack --enable-libwebp --enable-libx265 --enable-libxml2 --enable-libxvid --enable-libzmq --enable-libzvbi --enable-lv2 --enable-omx --enable-openal --enable-opencl --enable-opengl --enable-sdl2 --enable-libdc1394 --enable-libdrm --enable-libiec61883 --enable-nvenc --enable-chromaprint --enable-frei0r --enable-libx264 --enable-shared
  WARNING: library configuration mismatch
  avcodec     configuration: --prefix=/usr --extra-version=1ubuntu0.1 --toolchain=hardened --libdir=/usr/lib/x86_64-linux-gnu --incdir=/usr/include/x86_64-linux-gnu --arch=amd64 --enable-gpl --disable-stripping --enable-avresample --disable-filter=resample --enable-avisynth --enable-gnutls --enable-ladspa --enable-libaom --enable-libass --enable-libbluray --enable-libbs2b --enable-libcaca --enable-libcdio --enable-libcodec2 --enable-libflite --enable-libfontconfig --enable-libfreetype --enable-libfribidi --enable-libgme --enable-libgsm --enable-libjack --enable-libmp3lame --enable-libmysofa --enable-libopenjpeg --enable-libopenmpt --enable-libopus --enable-libpulse --enable-librsvg --enable-librubberband --enable-libshine --enable-libsnappy --enable-libsoxr --enable-libspeex --enable-libssh --enable-libtheora --enable-libtwolame --enable-libvidstab --enable-libvorbis --enable-libvpx --enable-libwavpack --enable-libwebp --enable-libx265 --enable-libxml2 --enable-libxvid --enable-libzmq --enable-libzvbi --enable-lv2 --enable-omx --enable-openal --enable-opencl --enable-opengl --enable-sdl2 --enable-libdc1394 --enable-libdrm --enable-libiec61883 --enable-nvenc --enable-chromaprint --enable-frei0r --enable-libx264 --enable-shared --enable-version3 --disable-doc --disable-programs --enable-libaribb24 --enable-liblensfun --enable-libopencore_amrnb --enable-libopencore_amrwb --enable-libtesseract --enable-libvo_amrwbenc
  libavutil      56. 31.100 / 56. 31.100
  libavcodec     58. 54.100 / 58. 54.100
  libavformat    58. 29.100 / 58. 29.100
  libavdevice    58.  8.100 / 58.  8.100
  libavfilter     7. 57.100 /  7. 57.100
  libavresample   4.  0.  0 /  4.  0.  0
  libswscale      5.  5.100 /  5.  5.100
  libswresample   3.  5.100 /  3.  5.100
  libpostproc    55.  5.100 / 55.  5.100
Input #0, image2pipe, from 'pipe:':
  Duration: N/A, bitrate: N/A
    Stream #0:0: Video: ppm, rgb24, 600x600, 25 fps, 25 tbr, 25 tbn, 25 tbc
Stream mapping:
  Stream #0:0 -> #0:0 (ppm (native) -> h264 (libx264))
[libx264 @ 0x5555555e0800] using cpu capabilities: MMX2 SSE2Fast SSSE3 SSE4.2 AVX FMA3 BMI2 AVX2 AVX512
[libx264 @ 0x5555555e0800] profile High, level 3.0
Output #0, mpegts, to 'ymovie.mp4':
  Metadata:
    encoder         : Lavf58.29.100
    Stream #0:0: Video: h264 (libx264), yuv420p, 600x600, q=-1--1, 25 fps, 90k tbn, 25 tbc
    Metadata:
      encoder         : Lavc58.54.100 libx264
    Side data:
      cpb: bitrate max/min/avg: 0/0/0 buffer size: 0 vbv_delay: -1
frame=    7 fps=0.3 q=19.0 size=      31kB time=00:00:00.24 bitrate=1059.0kbits/s speed=0.00984x    frame=    8 fps=0.2 q=19.0 size=      39kB time=00:00:00.28 bitrate=1133.3kbits/s speed=0.00533x    frame=    9 fps=0.1 q=19.0 size=      47kB time=00:00:00.32 bitrate=1193.8kbits/s speed=0.00365x    frame=   10 fps=0.1 q=19.0 size=      54kB time=00:00:00.36 bitrate=1236.6kbits/s speed=0.00293x    frame=   11 fps=0.1 q=19.0 size=      62kB time=00:00:00.40 bitrate=1259.6kbits/s speed=0.00263x    frame=   12 fps=0.1 q=19.0 size=      69kB time=00:00:00.44 bitrate=1288.6kbits/s speed=0.0024x    frame=   13 fps=0.1 q=19.0 size=      77kB time=00:00:00.48 bitrate=1312.8kbits/s speed=0.00214x    frame=   14 fps=0.1 q=19.0 size=      85kB time=00:00:00.52 bitrate=1333.3kbits/s speed=0.00191x    frame=   15 fps=0.0 q=19.0 size=      91kB time=00:00:00.56 bitrate=1337.5kbits/s speed=0.00182x    frame=   16 fps=0.0 q=19.0 size=      98kB time=00:00:00.60 bitrate=1338.5kbits/s speed=0.00176x    frame=   17 fps=0.0 q=19.0 size=     105kB time=00:00:00.64 bitrate=1339.5kbits/s speed=0.00166x    frame=   18 fps=0.0 q=19.0 size=     111kB time=00:00:00.68 bitrate=1338.1kbits/s speed=0.00161x    frame=   19 fps=0.0 q=19.0 size=     118kB time=00:00:00.72 bitrate=1345.2kbits/s speed=0.00158x    Error while decoding stream #0:0: Invalid data found when processing input
frame=   19 fps=0.0 q=19.0 size=     118kB time=00:00:00.72 bitrate=1345.2kbits/s speed=0.00146x    frame=   19 fps=0.0 q=19.0 Lsize=     118kB time=00:00:00.72 bitrate=1345.2kbits/s speed=0.0014x    
video:107kB audio:0kB subtitle:0kB other streams:0kB global headers:0kB muxing overhead: 10.366454%
[libx264 @ 0x5555555e0800] frame I:1     Avg QP: 1.30  size:  1557
[libx264 @ 0x5555555e0800] frame P:18    Avg QP: 6.95  size:  6008
[libx264 @ 0x5555555e0800] mb I  I16..4: 99.4%  0.0%  0.6%
[libx264 @ 0x5555555e0800] mb P  I16..4:  0.3%  0.4%  1.7%  P16..4:  3.0%  2.0%  1.8%  0.0%  0.0%    skip:90.7%
[libx264 @ 0x5555555e0800] 8x8 transform intra:4.8% inter:17.8%
[libx264 @ 0x5555555e0800] coded y,uvDC,uvAC intra: 20.1% 25.5% 24.2% inter: 3.1% 3.8% 3.7%
[libx264 @ 0x5555555e0800] i16 v,h,dc,p: 67% 10% 22%  0%
[libx264 @ 0x5555555e0800] i8 v,h,dc,ddl,ddr,vr,hd,vl,hu:  9% 25% 39%  4%  2%  1%  2%  8% 10%
[libx264 @ 0x5555555e0800] i4 v,h,dc,ddl,ddr,vr,hd,vl,hu: 12% 28% 25%  3%  7%  3%  9%  4%  8%
[libx264 @ 0x5555555e0800] i8c dc,h,v,p: 76% 17%  4%  3%
[libx264 @ 0x5555555e0800] Weighted P-Frames: Y:0.0% UV:0.0%
[libx264 @ 0x5555555e0800] ref P L0: 32.9%  3.2% 23.0% 19.4% 10.5% 11.1%
[libx264 @ 0x5555555e0800] kb/s:1154.74
Exiting normally, received signal 2.
/home/benny/basilisk/src/poisson.h:86:error: [Thread debugging using libthread_db enabled]
/home/benny/basilisk/src/poisson.h:86:error: Using host libthread_db library "/lib/x86_64-linux-gnu/libthread_db.so.1".
/home/benny/basilisk/src/poisson.h:86:error: [New Thread 0x7ffff625e700 (LWP 169626)]
/home/benny/basilisk/src/poisson.h:86:error: [New Thread 0x7ffff5a5d700 (LWP 169627)]
/home/benny/basilisk/src/poisson.h:86:error: [New Thread 0x7ffff525c700 (LWP 169628)]
/home/benny/basilisk/src/poisson.h:86:error: Thread 1 "multicouette_G" received signal SIGINT, Interrupt.
